<svg width="32" height="32" viewBox="0 0 32 32" fill="none" xmlns="http://www.w3.org/2000/svg">
<rect width="32" height="32" rx="16" fill="white" fill-opacity="0.4"/>
<path d="M21.8242 20.9752C21.8799 21.031 21.9241 21.0971 21.9543 21.17C21.9845 21.2428 22 21.3209 22 21.3997C22 21.4785 21.9845 21.5566 21.9543 21.6294C21.9241 21.7023 21.8799 21.7684 21.8242 21.8242C21.7684 21.8799 21.7023 21.9241 21.6294 21.9543C21.5566 21.9845 21.4785 22 21.3997 22C21.3209 22 21.2428 21.9845 21.17 21.9543C21.0971 21.9241 21.031 21.8799 20.9752 21.8242L16 16.8482L11.0248 21.8242C10.9122 21.9368 10.7595 22 10.6003 22C10.4411 22 10.2884 21.9368 10.1758 21.8242C10.0632 21.7116 10 21.5589 10 21.3997C10 21.2405 10.0632 21.0878 10.1758 20.9752L15.1518 16L10.1758 11.0248C10.0632 10.9122 10 10.7595 10 10.6003C10 10.4411 10.0632 10.2884 10.1758 10.1758C10.2884 10.0632 10.4411 10 10.6003 10C10.7595 10 10.9122 10.0632 11.0248 10.1758L16 15.1518L20.9752 10.1758C21.0878 10.0632 21.2405 10 21.3997 10C21.5589 10 21.7116 10.0632 21.8242 10.1758C21.9368 10.2884 22 10.4411 22 10.6003C22 10.7595 21.9368 10.9122 21.8242 11.0248L16.8482 16L21.8242 20.9752Z" fill="white"/>
</svg>
